PathFileType	4	(X/Y/Z)	C:\Users\86182\Documents\cortex\Trimmed_M3_H1.trc
DataRate	CameraRate	NumFrames	NumMarkers	Units	OrigDataRate	OrigDataStartFrame	OrigNumFrames
100.00	100.00	       126	2	mm	100.00	721	       901
Frame#	Time	gripper			box			
		X1	Y1	Z1	X2	Y2	Z2	

721	7.200	267.66159	173.21370	292.21304	267.96167	170.02638	155.70488	
722	7.210	267.66034	173.21262	292.21240	267.96478	170.02185	155.70663	
723	7.220	267.65936	173.21147	292.21191	267.96664	170.01900	155.70840	
724	7.230	267.65866	173.21043	292.21179	267.96707	170.01793	155.70993	
725	7.240	267.65811	173.20966	292.21207	267.96619	170.01846	155.71107	
726	7.250	267.65771	173.20934	292.21268	267.96445	170.02008	155.71162	
727	7.260	267.65793	173.20964	292.21344	267.96252	170.02232	155.71115	
728	7.270	267.65915	173.21042	292.21411	267.96088	170.02501	155.70944	
729	7.280	267.66129	173.21138	292.21436	267.95966	170.02812	155.70654	
730	7.290	267.66379	173.21227	292.21411	267.95880	170.03171	155.70279	
731	7.300	267.66620	173.21304	292.21365	267.95816	170.03574	155.69864	
732	7.310	267.66830	173.21379	292.21332	267.95767	170.03986	155.69467	
733	7.320	267.66989	173.21460	292.21341	267.95773	170.04338	155.69153	
734	7.330	267.67075	173.21544	292.21417	267.95847	170.04572	155.68977	
735	7.340	267.67065	173.21620	292.21558	267.95956	170.04675	155.68985	
736	7.350	267.66962	173.21680	292.21744	267.96054	170.04643	155.69179	
737	7.360	267.66797	173.21712	292.21936	267.96124	170.04465	155.69514	
738	7.370	267.66629	173.21721	292.22098	267.96201	170.04126	155.69930	
739	7.380	267.66489	173.21706	292.22198	267.96317	170.03664	155.70357	
740	7.390	267.66376	173.21666	292.22217	267.96466	170.03169	155.70729	
741	7.400	267.66254	173.21597	292.22150	267.96591	170.02776	155.71016	
742	7.410	267.66098	173.21500	292.22009	267.96634	170.02583	155.71202	
743	7.420	267.65930	173.21384	292.21808	267.96597	170.02611	155.71248	
744	7.430	267.65796	173.21266	292.21567	267.96542	170.02798	155.71095	
745	7.440	267.65753	173.21173	292.21323	267.96524	170.03069	155.70749	
746	7.450	267.65823	173.21126	292.21127	267.96558	170.03349	155.70297	
747	7.460	267.66000	173.21136	292.21021	267.96649	170.03578	155.69862	
748	7.470	267.66241	173.21196	292.21014	267.96780	170.03708	155.69539	
749	7.480	267.66483	173.21283	292.21088	267.96902	170.03734	155.69365	
750	7.490	267.66663	173.21367	292.21207	267.96957	170.03680	155.69350	
751	7.500	267.66736	173.21431	292.21338	267.96933	170.03577	155.69484	
752	7.510	267.66718	173.21466	292.21457	267.96869	170.03442	155.69753	
753	7.520	267.66632	173.21475	292.21539	267.96790	170.03305	155.70125	
754	7.530	267.66519	173.21468	292.21588	267.96698	170.03204	155.70552	
755	7.540	267.66409	173.21455	292.21613	267.96588	170.03162	155.70978	
756	7.550	267.66360	173.21443	292.21613	267.96466	170.03175	155.71330	
757	7.560	267.66428	173.21443	292.21582	267.96344	170.03233	155.71530	
758	7.570	267.66629	173.21463	292.21542	267.96240	170.03316	155.71513	
759	7.580	267.66931	173.21507	292.21524	267.96173	170.03421	155.71265	
760	7.590	267.67279	173.21574	292.21552	267.96146	170.03548	155.70822	
761	7.600	267.67627	173.21654	292.21628	267.96179	170.03656	155.70267	
762	7.610	267.67926	173.21738	292.21735	267.96304	170.03677	155.69699	
763	7.620	267.68097	173.21802	292.21854	267.96536	170.03584	155.69205	
764	7.630	267.68057	173.21828	292.21960	267.96829	170.03415	155.68840	
765	7.640	267.67776	173.21797	292.22031	267.97147	170.03218	155.68629	
766	7.650	267.67310	173.21710	292.22040	267.97455	170.03000	155.68573	
767	7.660	267.66748	173.21576	292.21967	267.97708	170.02765	155.68669	
768	7.670	267.66171	173.21417	292.21820	267.97855	170.02530	155.68903	
769	7.680	267.65643	173.21255	292.21613	267.97858	170.02348	155.69232	
770	7.690	267.65210	173.21117	292.21396	267.97696	170.02286	155.69576	
771	7.700	267.64893	173.21017	292.21222	267.97388	170.02379	155.69853	
772	7.710	267.64700	173.20964	292.21124	267.96979	170.02615	155.70026	
773	7.720	267.64642	173.20959	292.21106	267.96530	170.02937	155.70096	
774	7.730	267.64734	173.20996	292.21146	267.96091	170.03294	155.70090	
775	7.740	267.64975	173.21062	292.21210	267.95721	170.03653	155.70035	
776	7.750	267.65347	173.21150	292.21289	267.95474	170.03984	155.69958	
777	7.760	267.65805	173.21257	292.21375	267.95340	170.04279	155.69885	
778	7.770	267.66284	173.21375	292.21478	267.95276	170.04538	155.69826	
779	7.780	267.66718	173.21490	292.21585	267.95282	170.04736	155.69772	
780	7.790	267.67041	173.21588	292.21686	267.95380	170.04805	155.69705	
781	7.800	267.67209	173.21661	292.21777	267.95612	170.04663	155.69614	
782	7.810	267.67206	173.21703	292.21869	267.95996	170.04272	155.69495	
783	7.820	267.67047	173.21712	292.21964	267.96472	170.03699	155.69377	
784	7.830	267.66766	173.21689	292.22046	267.96924	170.03085	155.69310	
785	7.840	267.66428	173.21642	292.22113	267.97247	170.02570	155.69342	
786	7.850	267.66080	173.21574	292.22137	267.97409	170.02219	155.69505	
787	7.860	267.65778	173.21501	292.22113	267.97412	170.02043	155.69785	
788	7.870	267.65570	173.21432	292.22049	267.97299	170.02016	155.70123	
789	7.880	267.65494	173.21385	292.21954	267.97137	170.02080	155.70427	
790	7.890	267.65564	173.21365	292.21838	267.96997	170.02184	155.70613	
791	7.900	267.65778	173.21371	292.21710	267.96930	170.02284	155.70630	
792	7.910	267.66119	173.21402	292.21570	267.96951	170.02365	155.70464	
793	7.920	267.66550	173.21443	292.21429	267.97076	170.02420	155.70146	
794	7.930	267.66989	173.21480	292.21304	267.97269	170.02461	155.69745	
795	7.940	267.67334	173.21506	292.21225	267.97467	170.02502	155.69351	
796	7.950	267.67502	173.21518	292.21210	267.97610	170.02567	155.69041	
797	7.960	267.67459	173.21516	292.21262	267.97678	170.02666	155.68867	
798	7.970	267.67206	173.21494	292.21359	267.97659	170.02792	155.68854	
799	7.980	267.66763	173.21437	292.21472	267.97562	170.02916	155.68993	
800	7.990	267.66190	173.21352	292.21576	267.97403	170.03008	155.69254	
801	8.000	267.65613	173.21262	292.21667	267.97195	170.03062	155.69580	
802	8.010	267.65195	173.21204	292.21753	267.96939	170.03120	155.69905	
803	8.020	267.65027	173.21196	292.21838	267.96634	170.03239	155.70140	
804	8.030	267.65103	173.21236	292.21918	267.96310	170.03439	155.70226	
805	8.040	267.65411	173.21310	292.21979	267.96021	170.03697	155.70149	
806	8.050	267.65909	173.21404	292.21985	267.95792	170.03987	155.69954	
807	8.060	267.66522	173.21495	292.21924	267.95602	170.04311	155.69695	
808	8.070	267.67108	173.21568	292.21826	267.95456	170.04655	155.69402	
809	8.080	267.67517	173.21613	292.21719	267.95374	170.04977	155.69096	
810	8.090	267.67664	173.21616	292.21628	267.95377	170.05208	155.68814	
811	8.100	267.67542	173.21574	292.21558	267.95474	170.05266	155.68610	
812	8.110	267.67218	173.21506	292.21524	267.95639	170.05127	155.68542	
813	8.120	267.66763	173.21423	292.21533	267.95816	170.04865	155.68649	
814	8.130	267.66257	173.21347	292.21576	267.95947	170.04567	155.68916	
815	8.140	267.65790	173.21286	292.21637	267.96051	170.04279	155.69263	
816	8.150	267.65448	173.21246	292.21692	267.96146	170.04005	155.69603	
817	8.160	267.65262	173.21217	292.21710	267.96243	170.03749	155.69890	
818	8.170	267.65225	173.21178	292.21655	267.96359	170.03491	155.70122	
819	8.180	267.65329	173.21123	292.21533	267.96500	170.03246	155.70311	
820	8.190	267.65543	173.21060	292.21359	267.96671	170.03044	155.70441	
821	8.200	267.65845	173.21014	292.21179	267.96881	170.02892	155.70464	
822	8.210	267.66217	173.21008	292.21030	267.97116	170.02768	155.70340	
823	8.220	267.66626	173.21051	292.20947	267.97327	170.02672	155.70100	
824	8.230	267.67023	173.21141	292.20953	267.97449	170.02620	155.69807	
825	8.240	267.67361	173.21265	292.21033	267.97455	170.02618	155.69511	
826	8.250	267.67609	173.21394	292.21161	267.97366	170.02652	155.69247	
827	8.260	267.67728	173.21509	292.21310	267.97202	170.02705	155.69054	
828	8.270	267.67685	173.21591	292.21460	267.96948	170.02792	155.68979	
829	8.280	267.67462	173.21631	292.21603	267.96603	170.02917	155.69058	
830	8.290	267.67096	173.21632	292.21729	267.96216	170.03041	155.69272	
831	8.300	267.66653	173.21608	292.21835	267.95871	170.03108	155.69550	
832	8.310	267.66217	173.21570	292.21909	267.95627	170.03107	155.69807	
833	8.320	267.65845	173.21527	292.21948	267.95526	170.03032	155.69997	
834	8.330	267.65613	173.21495	292.21951	267.95602	170.02867	155.70091	
835	8.340	267.65576	173.21489	292.21936	267.95871	170.02614	155.70078	
836	8.350	267.65744	173.21509	292.21918	267.96283	170.02312	155.69951	
837	8.360	267.66049	173.21545	292.21881	267.96747	170.02034	155.69725	
838	8.370	267.66409	173.21579	292.21805	267.97162	170.01852	155.69435	
839	8.380	267.66739	173.21590	292.21677	267.97455	170.01808	155.69135	
840	8.390	267.66989	173.21574	292.21503	267.97583	170.01910	155.68895	
841	8.400	267.67169	173.21542	292.21320	267.97549	170.02133	155.68759	
842	8.410	267.67288	173.21507	292.21164	267.97397	170.02417	155.68724	
843	8.420	267.67337	173.21481	292.21082	267.97189	170.02679	155.68776	
844	8.430	267.67291	173.21471	292.21100	267.96979	170.02852	155.68925	
845	8.440	267.67145	173.21481	292.21222	267.96765	170.02940	155.69197	
846	8.450	267.66901	173.21506	292.21420	267.96521	170.02988	155.69577	
